<svg width="64" height="64" viewBox="0 0 64 64" fill="none" xmlns="http://www.w3.org/2000/svg">
  <rect width="64" height="64" fill="#f3f4f6"/>
  <path d="M32 16C24.268 16 18 22.268 18 30C18 37.732 24.268 44 32 44C39.732 44 46 37.732 46 30C46 22.268 39.732 16 32 16ZM32 42C25.373 42 20 36.627 20 30C20 23.373 25.373 18 32 18C38.627 18 44 23.373 44 30C44 36.627 38.627 42 32 42Z" fill="#9ca3af"/>
  <path d="M32 20C27.582 20 24 23.582 24 28C24 32.418 27.582 36 32 36C36.418 36 40 32.418 40 28C40 23.582 36.418 20 32 20ZM32 34C28.686 34 26 31.314 26 28C26 24.686 28.686 22 32 22C35.314 22 38 24.686 38 28C38 31.314 35.314 34 32 34Z" fill="#9ca3af"/>
  <circle cx="32" cy="28" r="2" fill="#9ca3af"/>
</svg>
